<?xml version="1.0" standalone="no"?>
<svg
  width="600"
  height="600"
  viewBox="0 0 600 600"
  xmlns="http://www.w3.org/2000/svg"
>
  <g transform="translate(300,300)">
    <path d="M104.9,-153.5C135.3,-122.3,159,-90.8,177.6,-53.1C196.2,-15.3,209.9,28.6,201.4,68.7C192.9,108.8,162.3,145,125,181.7C87.8,218.5,43.9,255.7,-5.1,262.8C-54.1,269.8,-108.2,246.5,-138,207.4C-167.8,168.2,-173.3,113.2,-193.2,60.7C-213,8.2,-247.3,-41.6,-241.7,-84.6C-236.1,-127.6,-190.6,-163.7,-143.7,-189.6C-96.8,-215.6,-48.4,-231.3,-5.6,-223.6C37.2,-215.9,74.5,-184.8,104.9,-153.5Z" fill="#0475ce" />
  </g>
</svg>
  